<?xml version="1.0" encoding="utf-8"?>
<!-- Generator: Adobe Illustrator 16.0.0, SVG Export Plug-In . SVG Version: 6.00 Build 0)  -->
<!DOCTYPE svg PUBLIC "-//W3C//DTD SVG 1.1//EN" "http://www.w3.org/Graphics/SVG/1.1/DTD/svg11.dtd">
<svg version="1.1" id="图层_1" xmlns="http://www.w3.org/2000/svg" xmlns:xlink="http://www.w3.org/1999/xlink" x="0px" y="0px"
	 width="20px" height="20px" viewBox="0 0 20 20" enable-background="new 0 0 20 20" xml:space="preserve">
<g>
	<g>
		<path fill="#2EAE9B" d="M17.136,13.301c-0.59-0.409-1.197-0.799-1.732-1.077c-0.865-0.466-1.215-0.521-1.418-0.521
			c-0.424,0-0.772,0.224-1.049,0.65c-0.203,0.279-0.352,0.614-0.479,0.931c-0.092,0.223-0.239,0.577-0.35,0.707
			c-0.185-0.056-0.663-0.261-1.456-0.8c-0.755-0.521-1.548-1.173-2.155-1.768C7.907,10.81,7.244,9.991,6.747,9.247
			C6.194,8.447,6.01,7.963,5.955,7.777c0.129-0.112,0.479-0.261,0.7-0.354c0.313-0.148,0.645-0.278,0.92-0.483
			C8,6.662,8.201,6.289,8.201,5.88c0-0.205-0.036-0.576-0.497-1.432c-0.276-0.54-0.664-1.153-1.069-1.749
			C6.323,2.253,5.862,1.62,5.384,1.118C4.832,0.542,4.407,0.281,4.021,0.281c-0.939,0-2.063,1.396-2.376,1.823
			C1.24,2.662,0.282,4.094,0.282,5.433c0,1.247,0.829,2.865,1.528,3.999c0.921,1.525,2.21,3.163,3.61,4.633l0.46,0.464
			c1.455,1.413,3.076,2.716,4.587,3.646c1.124,0.708,2.726,1.544,3.96,1.544c1.327,0,2.744-0.968,3.278-1.376
			c0.423-0.317,1.823-1.451,1.823-2.4c0-0.391-0.257-0.819-0.829-1.376C18.203,14.083,17.577,13.6,17.136,13.301z M18.019,16.52
			c-0.257,0.298-0.625,0.65-1.049,0.948c-0.921,0.688-1.879,1.098-2.542,1.098c-0.755,0-1.971-0.502-3.37-1.358
			c-1.438-0.892-2.985-2.138-4.385-3.497l-0.442-0.464c-1.345-1.396-2.579-2.958-3.463-4.409c-0.847-1.414-1.344-2.66-1.344-3.403
			c0-0.688,0.405-1.638,1.086-2.586C2.805,2.438,3.137,2.067,3.45,1.807c0.294-0.26,0.479-0.354,0.553-0.372
			C4.205,1.527,4.85,2.104,5.771,3.462c0.369,0.521,0.7,1.079,0.939,1.526C7.004,5.583,7.06,5.824,7.078,5.88
			C7.06,5.899,7.004,5.954,6.838,6.047C6.673,6.159,6.433,6.271,6.194,6.364c-0.277,0.13-0.572,0.26-0.811,0.409
			C4.997,7.034,4.794,7.35,4.813,7.721c0,0.186,0.019,0.707,0.995,2.177c0.533,0.799,1.252,1.673,1.878,2.326l0.019,0.018
			c0.645,0.633,1.511,1.339,2.303,1.897c1.437,0.984,1.97,1.005,2.155,1.005h0.019c0.35,0,0.664-0.206,0.922-0.577
			c0.146-0.242,0.274-0.54,0.404-0.818c0.093-0.242,0.203-0.483,0.294-0.651c0.111-0.167,0.167-0.223,0.185-0.242
			c0.056,0.02,0.295,0.075,0.866,0.373c0.461,0.241,1.013,0.576,1.528,0.948c1.326,0.93,1.897,1.581,2.009,1.786
			C18.352,16.037,18.277,16.223,18.019,16.52z M10.32,7.461c0.626-0.112,1.253,0,1.77,0.353c0.515,0.334,0.847,0.837,0.938,1.432
			c0.036,0.205,0.221,0.335,0.424,0.335h0.073c0.221-0.037,0.368-0.26,0.331-0.484c-0.146-0.818-0.607-1.525-1.308-1.99
			c-0.682-0.465-1.528-0.633-2.376-0.484C9.952,6.662,9.804,6.884,9.84,7.108C9.878,7.35,10.099,7.499,10.32,7.461z M10.32,4.689
			c1.197-0.205,2.413,0.038,3.39,0.688c0.975,0.669,1.639,1.637,1.823,2.771c0.036,0.205,0.222,0.354,0.423,0.354h0.074
			C16.251,8.447,16.398,8.242,16.362,8c-0.239-1.358-1.014-2.53-2.192-3.311c-1.16-0.781-2.578-1.079-3.997-0.818
			C9.952,3.908,9.804,4.131,9.84,4.355C9.878,4.578,10.099,4.745,10.32,4.689z M16.233,2.42c-1.861-1.246-4.107-1.693-6.355-1.303
			c-0.221,0.038-0.387,0.261-0.35,0.484c0.055,0.242,0.258,0.391,0.498,0.353c2.025-0.372,4.07,0.056,5.747,1.172
			c1.676,1.097,2.781,2.771,3.112,4.706c0.036,0.205,0.221,0.354,0.405,0.354h0.074c0.239-0.038,0.387-0.261,0.35-0.484
			C19.326,5.527,18.093,3.667,16.233,2.42z"/>
	</g>
</g>
</svg>
