<?xml version="1.0" encoding="utf-8"?>
<!-- Generator: Adobe Illustrator 16.0.0, SVG Export Plug-In . SVG Version: 6.00 Build 0)  -->
<!DOCTYPE svg PUBLIC "-//W3C//DTD SVG 1.1//EN" "http://www.w3.org/Graphics/SVG/1.1/DTD/svg11.dtd">
<svg version="1.1" id="图层_1" xmlns="http://www.w3.org/2000/svg" xmlns:xlink="http://www.w3.org/1999/xlink" x="0px" y="0px"
	 width="20px" height="20px" viewBox="0 0 20 20" enable-background="new 0 0 20 20" xml:space="preserve">
<path fill="#2EAE9B" d="M10,0.116c-5.458,0-9.884,4.426-9.884,9.884c0,5.457,4.426,9.884,9.884,9.884
	c5.457,0,9.884-4.427,9.884-9.884C19.884,4.542,15.457,0.116,10,0.116L10,0.116z M9.937,16.917c-0.805,0-1.459-0.642-1.459-1.43
	s0.652-1.429,1.459-1.429c0.804,0,1.458,0.641,1.458,1.429S10.743,16.917,9.937,16.917L9.937,16.917z M13.854,8.83
	c-0.286,0.449-0.894,1.061-1.824,1.835c-0.481,0.4-0.782,0.722-0.897,0.968c-0.116,0.243-0.171,0.679-0.159,1.309H8.896
	c-0.005-0.298-0.009-0.479-0.009-0.546c0-0.672,0.111-1.224,0.333-1.658c0.223-0.434,0.668-0.923,1.334-1.463
	c0.666-0.543,1.066-0.897,1.196-1.066c0.2-0.266,0.302-0.559,0.302-0.877c0-0.442-0.18-0.822-0.534-1.14
	c-0.354-0.316-0.836-0.475-1.438-0.475c-0.582,0-1.068,0.166-1.459,0.496C8.23,6.542,7.894,7.269,7.814,7.719
	C7.739,8.144,5.692,8.323,5.717,7.462S6.189,5.667,6.958,4.99c0.769-0.678,1.777-1.016,3.024-1.016c1.313,0,2.356,0.344,3.133,1.029
	c0.776,0.686,1.163,1.484,1.163,2.395C14.28,7.903,14.138,8.38,13.854,8.83L13.854,8.83z M13.854,8.83"/>
</svg>
