<?xml version="1.0" encoding="utf-8"?>
<!-- Generator: Adobe Illustrator 16.0.0, SVG Export Plug-In . SVG Version: 6.00 Build 0)  -->
<!DOCTYPE svg PUBLIC "-//W3C//DTD SVG 1.1//EN" "http://www.w3.org/Graphics/SVG/1.1/DTD/svg11.dtd">
<svg version="1.1" id="图层_1" xmlns="http://www.w3.org/2000/svg" xmlns:xlink="http://www.w3.org/1999/xlink" x="0px" y="0px"
	 width="20px" height="20px" viewBox="0 0 20 20" enable-background="new 0 0 20 20" xml:space="preserve">
<path fill="#CCCCCC" d="M19.097,18.363l-4.203-4.262c1.207-1.466,1.937-3.348,1.937-5.406c0-4.811-3.991-8.696-8.794-8.438
	C3.81,0.487,0.391,3.954,0.166,8.239c-0.255,4.867,3.579,8.907,8.327,8.907c0.388,0,0.77-0.026,1.146-0.081
	c0.377-0.052,0.603-0.453,0.45-0.809c-0.105-0.243-0.353-0.379-0.61-0.341c-0.323,0.043-0.65,0.069-0.985,0.069
	c-4.079,0-7.377-3.462-7.184-7.637C1.482,4.618,4.468,1.59,8.15,1.417c4.12-0.195,7.534,3.145,7.534,7.278
	c0,2.542-1.293,4.786-3.245,6.087c-0.231,0.153-0.313,0.459-0.204,0.713V15.5c0.142,0.325,0.543,0.453,0.837,0.254
	c0.364-0.243,0.707-0.515,1.029-0.809l4.184,4.241c0.111,0.112,0.26,0.17,0.405,0.17c0.147,0,0.295-0.058,0.406-0.17
	C19.319,18.958,19.319,18.589,19.097,18.363L19.097,18.363z M19.097,18.363"/>
</svg>
