<?xml version="1.0" encoding="utf-8"?>
<!-- Generator: Adobe Illustrator 16.0.0, SVG Export Plug-In . SVG Version: 6.00 Build 0)  -->
<!DOCTYPE svg PUBLIC "-//W3C//DTD SVG 1.1//EN" "http://www.w3.org/Graphics/SVG/1.1/DTD/svg11.dtd">
<svg version="1.1" id="图层_1" xmlns="http://www.w3.org/2000/svg" xmlns:xlink="http://www.w3.org/1999/xlink" x="0px" y="0px"
	 width="20px" height="20px" viewBox="0 0 20 20" enable-background="new 0 0 20 20" xml:space="preserve">
<g>
	<g>
		<path fill="#2EAE9B" d="M10-0.005c-4.488,0-8.004,3.475-8.004,7.909c0,4.326,7.24,11.363,7.548,11.661L10,20.005l0.454-0.439
			c0.31-0.298,7.55-7.335,7.55-11.661C18.004,3.47,14.486-0.005,10-0.005z M10,18.107c-2.216-2.233-6.67-7.32-6.67-10.203
			c0-3.722,2.868-6.528,6.67-6.528c3.803,0,6.668,2.807,6.668,6.528C16.668,10.784,12.213,15.873,10,18.107z M10,4.691
			c-1.839,0-3.335,1.547-3.335,3.45c0,1.903,1.496,3.451,3.335,3.451c1.838,0,3.334-1.548,3.334-3.451
			C13.334,6.238,11.838,4.691,10,4.691z M10,10.21c-1.104,0-2.001-0.928-2.001-2.07C7.998,7,8.896,6.07,10,6.07
			c1.102,0,2,0.929,2,2.07C12,9.282,11.102,10.21,10,10.21z"/>
	</g>
</g>
</svg>
