<?xml version="1.0" encoding="utf-8"?>
<!-- Generator: Adobe Illustrator 16.0.0, SVG Export Plug-In . SVG Version: 6.00 Build 0)  -->
<!DOCTYPE svg PUBLIC "-//W3C//DTD SVG 1.1//EN" "http://www.w3.org/Graphics/SVG/1.1/DTD/svg11.dtd">
<svg version="1.1" id="图层_1" xmlns="http://www.w3.org/2000/svg" xmlns:xlink="http://www.w3.org/1999/xlink" x="0px" y="0px"
	 width="20px" height="20px" viewBox="0 0 20 20" enable-background="new 0 0 20 20" xml:space="preserve">
<g>
	<g>
		<path fill="#2EAE9B" d="M19.821,14.8c-0.459-1.158-1.215-2.186-2.185-2.972c-0.293-0.239-0.723-0.192-0.959,0.103
			c-0.237,0.295-0.191,0.727,0.104,0.964c0.786,0.639,1.398,1.474,1.771,2.412c0.107,0.269,0.364,0.434,0.635,0.434
			c0.084,0,0.169-0.017,0.252-0.049C19.79,15.551,19.96,15.152,19.821,14.8z M13.089,12.573c-0.173-0.141-0.351-0.273-0.535-0.399
			c-0.313-0.212-0.737-0.129-0.948,0.184c-0.211,0.314-0.13,0.74,0.184,0.953c0.151,0.104,0.3,0.214,0.443,0.33
			c1.562,1.267,2.457,3.149,2.457,5.164c0,0.379,0.306,0.686,0.684,0.686c0.376,0,0.681-0.307,0.682-0.686
			C16.055,16.373,14.974,14.102,13.089,12.573z M14.019,2.909c1.612,0.499,2.695,1.975,2.695,3.672c0,1.627-1.024,3.083-2.55,3.625
			c-0.355,0.126-0.541,0.518-0.416,0.875c0.1,0.282,0.362,0.458,0.644,0.458c0.075,0,0.152-0.013,0.228-0.039
			c2.069-0.734,3.46-2.71,3.46-4.918c0-2.303-1.471-4.307-3.659-4.983c-0.361-0.112-0.741,0.092-0.853,0.454
			C13.457,2.413,13.658,2.797,14.019,2.909z M13.552,6.227c0-3.153-2.552-5.717-5.688-5.717c-3.136,0-5.688,2.565-5.688,5.718
			c0,2.222,1.271,4.148,3.117,5.093c-3.012,1.142-5.165,4.062-5.165,7.484c0,0.379,0.306,0.686,0.682,0.686
			c0.377,0,0.683-0.307,0.683-0.686c0-3.656,2.96-6.633,6.598-6.633c0.419,0,0.838,0.041,1.25,0.119
			c0.371,0.071,0.727-0.173,0.798-0.544c0.019-0.097,0.014-0.191-0.006-0.281C12.144,10.583,13.552,8.567,13.552,6.227z
			 M7.864,10.571c-2.384,0-4.323-1.949-4.323-4.345S5.48,1.881,7.864,1.881c2.383,0,4.323,1.949,4.323,4.345
			S10.248,10.571,7.864,10.571z"/>
	</g>
</g>
</svg>
